<svg xmlns="http://www.w3.org/2000/svg" width="24" height="3.86013986013986" viewBox="0 0 286 46"><path fill="#63C37B" fill-rule="evenodd" d="M921.872,2447.7982 L922.726,2448.6522 L918.239,2453.1402 L922.726,2457.6282 L921.872,2458.4832 L917.384,2453.9952 L912.897,2458.4832 L912.042,2457.6282 L916.53,2453.1402 L912.042,2448.6522 L912.897,2447.7982 L917.384,2452.2852 L921.872,2447.7982 Z M926.5434,2452.5677 L926.5434,2453.7127 L924.4464,2453.7127 L924.4464,2452.5677 L926.5434,2452.5677 Z M1019.3744,2452.5677 L1019.3744,2453.7127 L1015.1534,2453.7127 L1015.1534,2452.5677 L1019.3744,2452.5677 Z M1010.9324,2452.5677 L1010.9324,2453.7127 L1006.7124,2453.7127 L1006.7124,2452.5677 L1010.9324,2452.5677 Z M1027.7979,2452.5578 L1027.8339,2453.7018 C1027.5999,2453.7098 1027.3639,2453.7128 1027.1269,2453.7128 L1027.1269,2453.7128 L1023.5969,2453.7128 L1023.5969,2452.5678 L1027.1269,2452.5678 C1027.3519,2452.5678 1027.5759,2452.5648 1027.7979,2452.5578 L1027.7979,2452.5578 Z M1002.4914,2452.5677 L1002.4914,2453.7127 L998.2724,2453.7127 L998.2724,2452.5677 L1002.4914,2452.5677 Z M943.4224,2452.5677 L943.4224,2453.7127 L939.2014,2453.7127 L939.2014,2452.5677 L943.4224,2452.5677 Z M951.8624,2452.5677 L951.8624,2453.7127 L947.6424,2453.7127 L947.6424,2452.5677 L951.8624,2452.5677 Z M934.9784,2452.5677 L934.9784,2453.7127 L930.7554,2453.7127 L930.7554,2452.5677 L934.9784,2452.5677 Z M960.3024,2452.5677 L960.3024,2453.7127 L956.0834,2453.7127 L956.0834,2452.5677 L960.3024,2452.5677 Z M968.7404,2452.5677 L968.7404,2453.7127 L964.5214,2453.7127 L964.5214,2452.5677 L968.7404,2452.5677 Z M994.0534,2452.5677 L994.0534,2453.7127 L989.8344,2453.7127 L989.8344,2452.5677 L994.0534,2452.5677 Z M985.6154,2452.5677 L985.6154,2453.7127 L981.3964,2453.7127 L981.3964,2452.5677 L985.6154,2452.5677 Z M977.1734,2452.5677 L977.1734,2453.7127 L972.9594,2453.7127 L972.9594,2452.5677 L977.1734,2452.5677 Z M1035.757,2450.8216 L1036.193,2451.8806 C1034.839,2452.4376 1033.461,2452.8736 1032.098,2453.1736 L1032.098,2453.1736 L1031.851,2452.0556 C1033.149,2451.7696 1034.464,2451.3536 1035.757,2450.8216 L1035.757,2450.8216 Z M1042.9112,2446.6959 L1043.5852,2447.6219 C1042.3482,2448.5209 1041.1822,2449.2889 1040.0232,2449.9669 L1040.0232,2449.9669 L1039.4442,2448.9789 C1040.5712,2448.3189 1041.7052,2447.5729 1042.9112,2446.6959 L1042.9112,2446.6959 Z M1049.3785,2441.3869 L1050.1395,2442.2429 C1048.9245,2443.3229 1047.9055,2444.2019 1046.9335,2445.0069 L1046.9335,2445.0069 L1046.2025,2444.1259 C1047.1635,2443.3289 1048.1735,2442.4579 1049.3785,2441.3869 L1049.3785,2441.3869 Z M1055.6303,2435.7349 L1056.3943,2436.5879 C1055.4083,2437.4709 1054.4403,2438.3519 1053.4843,2439.2219 L1053.4843,2439.2219 L1053.2733,2439.4139 L1052.5023,2438.5669 L1052.7133,2438.3749 C1053.6713,2437.5029 1054.6423,2436.6199 1055.6303,2435.7349 L1055.6303,2435.7349 Z M1062.083,2430.2601 L1062.791,2431.1601 C1061.75,2431.9791 1060.691,2432.8491 1059.553,2433.8201 L1059.553,2433.8201 L1058.81,2432.9481 C1059.96,2431.9681 1061.03,2431.0891 1062.083,2430.2601 L1062.083,2430.2601 Z M1069.0263,2425.3831 L1069.6253,2426.3591 C1068.4773,2427.0641 1067.3053,2427.8371 1066.1423,2428.6581 L1066.1423,2428.6581 L1065.4823,2427.7221 C1066.6653,2426.8881 1067.8573,2426.1001 1069.0263,2425.3831 L1069.0263,2425.3831 Z M1076.577,2421.4899 L1077.02,2422.5449 C1075.76,2423.0749 1074.492,2423.6679 1073.252,2424.3089 L1073.252,2424.3089 L1072.726,2423.2919 C1073.993,2422.6369 1075.289,2422.0299 1076.577,2421.4899 L1076.577,2421.4899 Z M1189.8627,2413.6132 L1197.5007,2418.0232 L1189.8627,2422.4322 L1189.8627,2413.6132 Z M1084.6584,2418.8667 L1084.9194,2419.9817 C1083.5744,2420.2977 1082.2274,2420.6727 1080.9164,2421.0977 L1080.9164,2421.0977 L1080.5634,2420.0087 C1081.9044,2419.5727 1083.2824,2419.1897 1084.6584,2418.8667 L1084.6584,2418.8667 Z M1093.0554,2417.6032 L1093.1374,2418.7452 C1091.7454,2418.8452 1090.3544,2418.9992 1089.0024,2419.2002 L1089.0024,2419.2002 L1088.8334,2418.0682 C1090.2134,2417.8612 1091.6334,2417.7052 1093.0554,2417.6032 L1093.0554,2417.6032 Z M1109.9454,2417.4497 L1109.9454,2418.5957 L1105.7344,2418.5957 L1105.7344,2417.4497 L1109.9454,2417.4497 Z M1152.1124,2417.4497 L1152.1124,2418.5957 L1147.8964,2418.5957 L1147.8964,2417.4497 L1152.1124,2417.4497 Z M1135.2474,2417.4497 L1135.2474,2418.5957 L1131.0314,2418.5957 L1131.0314,2417.4497 L1135.2474,2417.4497 Z M1160.5454,2417.4497 L1160.5454,2418.5957 L1156.3284,2418.5957 L1156.3284,2417.4497 L1160.5454,2417.4497 Z M1143.6794,2417.4497 L1143.6794,2418.5957 L1139.4634,2418.5957 L1139.4634,2417.4497 L1143.6794,2417.4497 Z M1185.8474,2417.4497 L1185.8474,2418.5957 L1181.6294,2418.5957 L1181.6294,2417.4497 L1185.8474,2417.4497 Z M1168.9784,2417.4497 L1168.9784,2418.5957 L1164.7614,2418.5957 L1164.7614,2417.4497 L1168.9784,2417.4497 Z M1177.4114,2417.4497 L1177.4114,2418.5957 L1173.1944,2418.5957 L1173.1944,2417.4497 L1177.4114,2417.4497 Z M1126.8164,2417.4497 L1126.8164,2418.5957 L1122.6004,2418.5957 L1122.6004,2417.4497 L1126.8164,2417.4497 Z M1118.3784,2417.4497 L1118.3784,2418.5957 L1114.1604,2418.5957 L1114.1604,2417.4497 L1118.3784,2417.4497 Z M1101.5184,2417.4497 L1101.5184,2418.5957 L1097.3024,2418.5957 L1097.3024,2417.4497 L1101.5184,2417.4497 Z" transform="translate(-912 -2413)"/></svg>