<svg xmlns="http://www.w3.org/2000/svg" width="24" height="15.801652892561984" viewBox="0 0 363 239"><g fill="#FFF" transform="translate(0 .14)"><path d="M350.840029,238.84002 L11.480001,238.84002 L11.480001,-9.9475983e-14 L350.840029,-9.9475983e-14 L350.840029,238.84002 Z M12.320001,238.00002 L350.000029,238.00002 L350.000029,0.84000007 L12.320001,0.84000007 L12.320001,238.00002 Z"/><path d="M29.6800025 150.080012L11.480001 150.080012 11.480001 88.7600074 29.6800025 88.7600074 29.6800025 150.080012zM12.320001 149.240012L28.8400024 149.240012 28.8400024 89.8800075 12.320001 89.8800075 12.320001 149.240012zM12.320001 9.24280077L12.320001 8.32720069C16.5200014 8.32720069 19.7568016 4.7600004 19.7568016 3.10862447e-14L20.6304031 3.10862447e-14C20.6332017 5.60000046 16.5200014 9.24280077 12.320001 9.24280077zM350.840029 9.24280077C346.080029 9.24280077 342.342028 5.60000046 342.342028 2.93098879e-14L343.218428 2.93098879e-14C343.218428 4.7600004 346.642829 8.32720069 350.842829 8.32720069L350.842829 9.24280077 350.840029 9.24280077zM342.342028 238.84002L341.468428 238.84002C341.468428 233.240019 345.242829 229.392819 350.002829 229.392819L350.002829 230.308419C345.800029 230.308419 342.342028 234.080019 342.342028 238.84002zM20.6332017 238.84002L19.7596016 238.84002C19.7596016 234.080019 16.5228014 230.308419 12.322801 230.308419L12.322801 229.392819C16.5200014 229.392819 20.6332017 233.240019 20.6332017 238.84002zM49.0700041 118.97481C49.0700041 119.92121 48.336404 120.68841 47.4292039 120.68841 46.5220039 120.68841 45.7884038 119.92121 45.7884038 118.97481 45.7884038 118.02841 46.5220039 117.25841 47.4292039 117.25841 48.336404 117.25841 49.0700041 118.02841 49.0700041 118.97481zM183.274015 118.97481C183.274015 119.92121 182.540415 120.68841 181.633215 120.68841 180.726015 120.68841 179.992415 119.92121 179.992415 118.97481 179.992415 118.02841 180.726015 117.25841 181.633215 117.25841 182.537615 117.25841 183.274015 118.02841 183.274015 118.97481z"/><path d="M181.633215,151.715213 C164.908814,151.715213 151.300813,137.180411 151.300813,119.31921 C151.300813,101.455208 164.908814,86.9232072 181.633215,86.9232072 C198.357616,86.9232072 211.965618,101.455208 211.965618,119.31921 C211.965618,137.180411 198.357616,151.715213 181.633215,151.715213 Z M181.633215,87.8360073 C165.390414,87.8360073 152.174413,101.959208 152.174413,119.31921 C152.174413,136.679211 165.390414,150.802413 181.633215,150.802413 C197.876016,150.802413 211.092018,136.679211 211.092018,119.31921 C211.089218,101.956408 197.876016,87.8360073 181.633215,87.8360073 Z"/><rect width="1" height="238.84" x="181.16"/><polygon points="12.32 137.2 0 137.2 0 100.8 12.32 100.8 12.32 101.64 .84 101.64 .84 136.36 12.32 136.36"/><path d="M11.992401,137.009611 L0.397600033,137.009611 L0.397600033,101.166808 L11.992401,101.166808 L11.992401,137.009611 Z M0.616000051,136.780011 L11.771201,136.780011 L11.771201,101.396408 L0.616000051,101.396408 L0.616000051,136.780011 Z"/><rect width="11.374" height="1" x=".507" y="134.526"/><rect width="11.374" height="1" x=".507" y="132.154"/><rect width="11.374" height="1" x=".507" y="129.43"/><rect width="11.374" height="1" x=".507" y="126.532"/><rect width="11.374" height="1" x=".507" y="123.634"/><rect width="11.374" height="1" x=".507" y="120.736"/><rect width="11.374" height="1" x=".507" y="117.838"/><rect width="11.374" height="1" x=".507" y="114.94"/><rect width="11.374" height="1" x=".507" y="112.042"/><rect width="11.374" height="1" x=".507" y="109.144"/><rect width="11.374" height="1" x=".507" y="106.246"/><rect width="11.374" height="1" x=".507" y="103.348"/><rect width="1" height="35.613" x="10.478" y="101.282"/><rect width="1" height="35.613" x="8.431" y="101.282"/><rect width="1" height="35.613" x="6.381" y="101.282"/><rect width="1" height="35.613" x="4.334" y="101.282"/><rect width="1" height="35.613" x="2.366" y="101.282"/><path d="M350.840029 150.080012L332.640028 150.080012 332.640028 88.7600074 350.840029 88.7600074 350.840029 150.080012zM333.480028 149.240012L350.000029 149.240012 350.000029 89.8800075 333.480028 89.8800075 333.480028 149.240012zM313.283626 118.97481C313.283626 119.92121 314.017226 120.68841 314.924426 120.68841 315.828826 120.68841 316.565226 119.92121 316.565226 118.97481 316.565226 118.02841 315.831626 117.25841 314.924426 117.25841 314.017226 117.25841 313.283626 118.02841 313.283626 118.97481z"/><polygon points="362.32 137.2 350 137.2 350 136.36 361.48 136.36 361.48 101.64 350 101.64 350 100.8 362.32 100.8"/><path d="M361.95323,137.009611 L350.358429,137.009611 L350.358429,101.166808 L361.95323,101.166808 L361.95323,137.009611 Z M350.579629,136.780011 L361.73483,136.780011 L361.73483,101.396408 L350.579629,101.396408 L350.579629,136.780011 Z"/><rect width="11.376" height="1" x="350.47" y="134.526"/><rect width="11.376" height="1" x="350.47" y="132.154"/><rect width="11.376" height="1" x="350.47" y="129.43"/><rect width="11.376" height="1" x="350.47" y="126.532"/><rect width="11.376" height="1" x="350.47" y="123.634"/><rect width="11.376" height="1" x="350.47" y="120.736"/><rect width="11.376" height="1" x="350.47" y="117.838"/><rect width="11.376" height="1" x="350.47" y="114.94"/><rect width="11.376" height="1" x="350.47" y="112.042"/><rect width="11.376" height="1" x="350.47" y="109.144"/><rect width="11.376" height="1" x="350.47" y="106.246"/><rect width="11.376" height="1" x="350.47" y="103.348"/><rect width="1" height="35.613" x="351.658" y="101.282"/><rect width="1" height="35.613" x="353.704" y="101.282"/><rect width="1" height="35.613" x="355.751" y="101.282"/><rect width="1" height="35.613" x="357.798" y="101.282"/><rect width="1" height="35.613" x="359.766" y="101.282"/><g transform="translate(285.32 51.1)"><path d="M65.5200054,135.660011 L11.480001,135.660011 L11.480001,92.7276077 C4.20000035,86.8056072 0.106400009,77.9240065 0.106400009,68.3312057 C0.106400009,58.7356049 4.20000035,49.8568041 11.480001,43.9348036 L11.480001,0.140000012 L65.5200054,0.140000012 L65.5200054,135.660011 Z M12.320001,134.820011 L64.6800054,134.820011 L64.6800054,0.980000081 L12.320001,0.980000081 L12.320001,44.3828037 L12.115601,44.5200037 C4.99520041,50.2684042 0.893200074,58.9484049 0.893200074,68.3312057 C0.893200074,77.7140065 5.00360042,86.3940072 12.124001,92.1424076 L12.320001,92.2796077 L12.320001,134.820011 Z"/><rect width="1" height="48.44" x="11.48" y="44.1"/></g><g transform="translate(11.48 51.1)"><path d="M54.0400045,135.660011 L0,135.660011 L0,0.140000012 L54.0400045,0.140000012 L54.0400045,43.9348036 C61.6000051,49.8596041 65.4136054,58.7356049 65.4136054,68.3312057 C65.4136054,77.9240065 61.6000051,86.8056072 54.0400045,92.7276077 L54.0400045,135.660011 Z M0.84000007,134.820011 L53.2000044,134.820011 L53.2000044,92.2796077 L53.4408044,92.1424076 C60.561205,86.3940072 64.6800054,77.7140065 64.6800054,68.3312057 C64.6800054,58.9484049 60.544405,50.2684042 53.4212044,44.5200037 L53.2000044,44.3828037 L53.2000044,0.980000081 L0.84000007,0.980000081 L0.84000007,134.820011 Z"/><rect width="1" height="48.44" x="53.2" y="44.1"/></g></g></svg>