<svg xmlns="http://www.w3.org/2000/svg" xmlns:xlink="http://www.w3.org/1999/xlink" width="150" height="23" viewBox="0 0 150 23">
    <defs>
        <path id="prefix__a" d="M0.087 0.107L20.508 0.107 20.508 14.97 0.087 14.97z"/>
        <path id="prefix__c" d="M0.025 0.063L128.349 0.063 128.349 22.879 0.025 22.879z"/>
    </defs>
    <g fill="none" fillRule="evenodd">
        <path fill="#030E2F" d="M78.006 10.728c-.445-.816-1.06-1.437-1.843-1.866-.783-.428-1.677-.643-2.68-.643-1.566 0-2.802.609-3.706 1.825l-.233-1.7H68.04v14.718h1.737v-5.763c.353.538.84.964 1.462 1.275.621.31 1.37.466 2.244.466.989 0 1.879-.228 2.67-.684.79-.456 1.408-1.091 1.853-1.907.444-.815.667-1.755.667-2.82 0-1.119-.223-2.086-.667-2.901m-2.097 5.71c-.656.726-1.522 1.089-2.594 1.089-.693 0-1.31-.166-1.854-.497-.543-.332-.963-.799-1.26-1.4-.297-.601-.445-1.282-.445-2.042 0-.746.148-1.413.445-2 .297-.587.717-1.044 1.26-1.368.544-.325 1.161-.488 1.854-.488 1.072 0 1.938.363 2.594 1.089.656.726.984 1.662.984 2.809 0 1.147-.328 2.083-.984 2.808"/>
        <g transform="translate(129.39 8.092)">
            <mask id="prefix__b" fill="#fff">
                <use xlink:href="#prefix__a"/>
            </mask>
            <path fill="#030E2F" d="M7.023 5.082c-.614-.193-1.394-.345-2.34-.456-.678-.083-1.183-.159-1.514-.228-.332-.069-.604-.2-.816-.394-.212-.194-.317-.47-.317-.83 0-.483.225-.873.677-1.17.452-.297 1.045-.446 1.78-.446.72 0 1.32.18 1.8.539.48.36.755.816.826 1.368h1.736C8.771 2.387 8.33 1.558 7.532.977c-.798-.58-1.833-.87-3.104-.87-.776 0-1.475.135-2.096.404-.621.27-1.112.646-1.472 1.13C.5 2.125.32 2.678.32 3.299c0 .691.183 1.234.55 1.628.368.393.848.68 1.44.86.594.18 1.356.324 2.289.435.663.083 1.175.166 1.534.249.36.083.654.235.88.456.225.22.339.539.339.954 0 .483-.237.873-.71 1.17-.473.298-1.09.446-1.853.446-.861 0-1.564-.2-2.107-.6-.544-.401-.83-.92-.858-1.556H.087C.1 8.475.535 9.36 1.389 9.995c.854.636 1.988.953 3.4.953.79 0 1.51-.13 2.16-.394.65-.262 1.165-.635 1.546-1.119.382-.483.572-1.043.572-1.68 0-.732-.187-1.311-.56-1.74-.375-.428-.87-.74-1.484-.933M18.666.252l-3.942 8.623L11.398.252H9.556l4.236 10.655-.55 1.264c-.156.373-.287.64-.393.799-.106.158-.243.272-.413.341-.17.07-.423.104-.762.104h-1.546v1.555h2.075c.494 0 .89-.076 1.186-.228.297-.152.544-.387.741-.705.198-.318.424-.795.678-1.43l5.7-12.355h-1.842" mask="url(#prefix__b)"/>
        </g>
        <path fill="#030E2F" d="M65.53 12.003c-.89-.574-2.076-.985-3.559-1.234-.932-.152-1.666-.308-2.202-.466-.537-.16-.975-.394-1.314-.705-.338-.311-.508-.743-.508-1.296 0-.76.29-1.35.868-1.772.58-.421 1.363-.632 2.352-.632.988 0 1.814.255 2.477.767.664.511 1.053 1.189 1.165 2.031h1.822c-.057-.87-.318-1.64-.784-2.311-.466-.67-1.101-1.192-1.906-1.565-.805-.373-1.73-.56-2.774-.56-.99 0-1.868.173-2.637.518-.77.346-1.367.833-1.79 1.462-.424.629-.636 1.35-.636 2.166 0 1.271.438 2.19 1.314 2.757.875.567 2.054.974 3.537 1.223.931.152 1.67.308 2.213.467.543.159.988.403 1.334.735.346.332.519.781.519 1.348 0 .774-.314 1.378-.942 1.814-.629.435-1.451.653-2.468.653-1.13 0-2.062-.294-2.796-.882-.734-.587-1.137-1.37-1.206-2.352h-1.822c.042.953.3 1.8.773 2.539.473.74 1.14 1.313 2.001 1.72.861.409 1.871.612 3.029.612 1.03 0 1.945-.18 2.743-.539.798-.36 1.419-.863 1.864-1.513.445-.65.667-1.389.667-2.218 0-1.271-.445-2.194-1.334-2.767M94.748 8.779c-.494.29-.897.677-1.207 1.16l-.233-1.595h-1.504v10.571h1.737v-5.39c0-.994.222-1.83.667-2.507.445-.677 1.182-1.016 2.213-1.016h.869V8.344h-.487c-.876 0-1.561.145-2.055.435M108.498 12.365L115.216 12.365 115.216 10.707 108.498 10.707 108.498 6.063 116.486 6.063 116.486 4.405 106.656 4.405 106.656 18.915 116.762 18.915 116.762 17.257 108.498 17.257 108.498 12.365M100.383 17.081c-.177-.187-.265-.5-.265-.944V9.9h2.732V8.344h-2.732V5.379h-1.736v10.78c0 .953.214 1.651.645 2.094.43.442 1.155.662 2.172.662h1.99v-1.554h-1.884c-.438 0-.746-.093-.922-.28M89.766 10.81c-.452-.815-1.084-1.451-1.895-1.907-.813-.456-1.741-.684-2.786-.684s-1.973.228-2.785.684c-.812.456-1.444 1.092-1.895 1.907-.452.816-.679 1.756-.679 2.82 0 1.064.227 2.004.679 2.819.451.815 1.083 1.451 1.895 1.907.812.456 1.74.684 2.785.684 1.045 0 1.973-.228 2.786-.684.811-.456 1.443-1.092 1.895-1.907.452-.815.678-1.755.678-2.82 0-1.063-.226-2.003-.678-2.819m-1.546 4.83c-.297.595-.717 1.057-1.26 1.39-.544.331-1.169.497-1.875.497s-1.331-.166-1.874-.498c-.544-.332-.964-.794-1.26-1.388-.297-.595-.445-1.265-.445-2.011 0-.747.148-1.417.445-2.011.296-.594.716-1.058 1.26-1.389.543-.332 1.168-.497 1.874-.497.706 0 1.331.165 1.874.497.544.331.964.795 1.26 1.389.298.594.446 1.264.446 2.01 0 .747-.148 1.417-.445 2.012"/>
        <mask id="prefix__d" fill="#fff">
            <use xlink:href="#prefix__c"/>
        </mask>
        <path fill="#030E2F" d="M127.82 17.361c-.48 0-.72-.255-.72-.767v-4.56c0-1.23-.378-2.173-1.133-2.83-.756-.656-1.826-.985-3.209-.985-1.3 0-2.355.29-3.167.87-.812.582-1.281 1.39-1.408 2.426h1.737c.112-.538.412-.97.9-1.295.487-.325 1.104-.488 1.853-.488.847 0 1.507.194 1.98.581.473.387.71.926.71 1.617v.725h-3.177c-1.412 0-2.489.284-3.23.85-.741.567-1.112 1.383-1.112 2.446 0 .954.363 1.707 1.09 2.26.728.553 1.692.829 2.892.829 1.58 0 2.788-.587 3.622-1.762.014.539.17.947.466 1.223.296.277.79.414 1.482.414h.953v-1.554h-.529zm-2.457-2.757c0 .898-.304 1.62-.91 2.166-.608.546-1.441.82-2.5.82-.72 0-1.292-.16-1.716-.478-.423-.317-.635-.739-.635-1.265 0-1.174.805-1.761 2.415-1.761h3.346v.518z" mask="url(#prefix__d)"/>
        <path fill="#63C37B" d="M0 22.879v-7.7h6.09v2.852h11.103v-2.824c0-.304-.102-.56-.306-.77-.204-.21-.452-.333-.743-.371L3.672 12.84c-.525-.057-1.01-.195-1.457-.414-.447-.218-.836-.508-1.166-.87-.33-.36-.587-.77-.772-1.226C.093 9.874 0 9.389 0 8.875v-4.82c0-.55.107-1.07.32-1.554.214-.485.505-.907.873-1.269.37-.36.8-.646 1.295-.855.495-.21 1.024-.314 1.587-.314h15.133c.563 0 1.092.105 1.587.314.494.209.926.494 1.295.855.369.362.66.784.873 1.27.213.484.32 1.003.32 1.554v3.707h-6.09V6.052c0-.323-.112-.594-.336-.813-.224-.218-.502-.328-.833-.328H7.259c-.331 0-.609.11-.833.328-.224.219-.336.49-.336.813v1.112c0 .305.098.561.292.77.194.21.437.333.728.371l12.501 1.226c.506.057.981.196 1.428.414.447.219.836.509 1.166.87.33.361.592.77.786 1.226.195.456.292.941.292 1.455v9.383H0" mask="url(#prefix__d)"/>
        <path fill="#030E2F" d="M24.95 18.886v-4.078c0-.8.212-1.521.637-2.168.426-.646.987-1.131 1.682-1.455-.695-.323-1.256-.807-1.682-1.454-.425-.646-.638-1.369-.638-2.168V4.056c0-.552.107-1.07.32-1.555.214-.485.505-.908.874-1.269.368-.36.8-.646 1.294-.856.495-.208 1.024-.313 1.587-.313h14.162c.563 0 1.092.105 1.587.313.494.21.922.495 1.28.856.36.361.646.784.859 1.27.214.484.32 1.002.32 1.554v3.707h-6.09V6.052c0-.323-.112-.594-.336-.813-.223-.218-.5-.328-.83-.328h-8.062c-.33 0-.607.11-.831.328-.223.219-.335.49-.335.813v1.71c0 .325.112.596.335.814.224.219.5.328.83.328h6.314v4.563h-6.313c-.33 0-.607.11-.831.328-.223.219-.335.49-.335.813v2.282c0 .323.112.594.335.812.224.22.5.328.83.328h8.063c.33 0 .607-.109.83-.328.224-.218.335-.489.335-.812v-2.282h6.12l-.029 4.278c0 .552-.106 1.07-.32 1.554-.213.485-.5.908-.858 1.27-.36.36-.787.646-1.281.855-.495.21-1.024.314-1.587.314H29.024c-.563 0-1.092-.104-1.587-.314-.494-.209-.926-.494-1.294-.855-.37-.362-.66-.785-.874-1.27-.213-.485-.32-1.002-.32-1.554"/>
    </g>
</svg>
