<?xml version="1.0" encoding="UTF-8"?>
<svg width="235px" height="24px" viewBox="0 0 235 24" version="1.1" xmlns="http://www.w3.org/2000/svg" xmlns:xlink="http://www.w3.org/1999/xlink">
    <title>Group 2 Copy 3</title>
    <g id="Sondage" stroke="none" stroke-width="1" fill="none" fill-rule="evenodd">
        <g id="Sondage---lecteur-Q1" transform="translate(-524.000000, -44.000000)" fill-rule="nonzero">
            <g id="Group-2-Copy-3" transform="translate(524.000000, 44.000000)">
                <g id="LPQ" transform="translate(0.590399, 0.520000)">
                    <path d="M16.8696003,18.4800003 C17.2744003,18.4800003 17.4768003,18.2864003 17.4768003,17.8992003 L17.4768003,17.8992003 L17.4768003,14.8104002 C17.4768003,14.4232002 17.2744003,14.2296002 16.8696003,14.2296002 L16.8696003,14.2296002 L5.33280008,14.2296002 L5.33280008,0.580800009 C5.33280008,0.193600003 5.12160008,9.05941988e-14 4.69920007,9.05941988e-14 L4.69920007,9.05941988e-14 L0.607200009,9.05941988e-14 C0.202400003,9.05941988e-14 -5.68434189e-14,0.193600003 -5.68434189e-14,0.580800009 L-5.68434189e-14,0.580800009 L-5.68434189e-14,17.8992003 C-5.68434189e-14,18.2864003 0.202400003,18.4800003 0.607200009,18.4800003 L0.607200009,18.4800003 L16.8696003,18.4800003 Z M24.2352004,18.4800003 C24.6576004,18.4800003 24.8688004,18.2864003 24.8688004,17.8992003 L24.8688004,17.8992003 L24.8688004,12.8568002 L34.3992005,12.8568002 C35.9480005,12.8568002 37.0700006,12.5268002 37.7652006,11.8668002 C38.4604006,11.2068002 38.8080006,10.1288002 38.8080006,8.63280013 L38.8080006,8.63280013 L38.8080006,4.22400006 C38.8080006,2.72800004 38.4604006,1.65000002 37.7652006,0.990000015 C37.0700006,0.330000005 35.9480005,9.05941988e-14 34.3992005,9.05941988e-14 L34.3992005,9.05941988e-14 L20.1432003,9.05941988e-14 C19.7384003,9.05941988e-14 19.5360003,0.193600003 19.5360003,0.580800009 L19.5360003,0.580800009 L19.5360003,17.8992003 C19.5360003,18.2864003 19.7384003,18.4800003 20.1432003,18.4800003 L20.1432003,18.4800003 L24.2352004,18.4800003 Z M31.7064005,8.60640013 L24.8688004,8.60640013 L24.8688004,4.25040006 L31.7064005,4.25040006 C32.0936005,4.25040006 32.4016005,4.26800006 32.6304005,4.30320006 C32.8592005,4.33840006 33.0352005,4.41320007 33.1584005,4.52760007 C33.2816005,4.64200007 33.3652005,4.79600007 33.4092005,4.98960007 C33.4532005,5.18320008 33.4752005,5.43840008 33.4752005,5.75520009 L33.4752005,5.75520009 L33.4752005,7.10160011 C33.4752005,7.41840011 33.4532005,7.67360011 33.4092005,7.86720012 C33.3652005,8.06080012 33.2816005,8.21480012 33.1584005,8.32920012 C33.0352005,8.44360013 32.8592005,8.51840013 32.6304005,8.55360013 C32.4016005,8.58880013 32.0936005,8.60640013 31.7064005,8.60640013 L31.7064005,8.60640013 Z" id="LP" fill="#63C37B"></path>
                    <path d="M60.5616009,22.5984003 C60.7728009,22.5984003 60.9092009,22.5104003 60.9708009,22.3344003 C61.0324009,22.1584003 60.9752009,21.9912003 60.7992009,21.8328003 L60.7992009,21.8328003 L56.9712008,18.4800003 C58.3968009,18.4272003 59.4264009,18.0664003 60.0600009,17.3976003 C60.6936009,16.7288002 61.0104009,15.6816002 61.0104009,14.2560002 L61.0104009,14.2560002 L61.0104009,4.22400006 C61.0104009,2.72800004 60.6628009,1.65000002 59.9676009,0.990000015 C59.2724009,0.330000005 58.1504009,2.98427949e-13 56.6016008,2.98427949e-13 L56.6016008,2.98427949e-13 L45.3288007,2.98427949e-13 C43.7800007,2.98427949e-13 42.6536006,0.330000005 41.9496006,0.990000015 C41.2456006,1.65000002 40.8936006,2.72800004 40.8936006,4.22400006 L40.8936006,4.22400006 L40.8936006,14.2560002 C40.8936006,15.7520002 41.2456006,16.8300003 41.9496006,17.4900003 C42.6536006,18.1500003 43.7800007,18.4800003 45.3288007,18.4800003 L45.3288007,18.4800003 L50.7936008,18.4800003 L54.5952008,22.1232003 C54.7712008,22.2992003 54.9428008,22.4224003 55.1100008,22.4928003 C55.2772008,22.5632003 55.5104008,22.5984003 55.8096008,22.5984003 L55.8096008,22.5984003 L60.5616009,22.5984003 Z M53.6448008,14.2296002 L48.2592007,14.2296002 C47.8368007,14.2296002 47.4892007,14.2076002 47.2164007,14.1636002 C46.9436007,14.1196002 46.7368007,14.0360002 46.5960007,13.9128002 C46.4552007,13.7896002 46.3584007,13.6180002 46.3056007,13.3980002 C46.2528007,13.1780002 46.2264007,12.8920002 46.2264007,12.5400002 L46.2264007,12.5400002 L46.2264007,5.94000009 C46.2264007,5.58800008 46.2528007,5.30200008 46.3056007,5.08200008 C46.3584007,4.86200007 46.4552007,4.69040007 46.5960007,4.56720007 C46.7368007,4.44400007 46.9436007,4.36040006 47.2164007,4.31640006 C47.4892007,4.27240006 47.8368007,4.25040006 48.2592007,4.25040006 L48.2592007,4.25040006 L53.6448008,4.25040006 C54.0848008,4.25040006 54.4368008,4.27240006 54.7008008,4.31640006 C54.9648008,4.36040006 55.1672008,4.44400007 55.3080008,4.56720007 C55.4488008,4.69040007 55.5456008,4.86200007 55.5984008,5.08200008 C55.6512008,5.30200008 55.6776008,5.58800008 55.6776008,5.94000009 L55.6776008,5.94000009 L55.6776008,12.5400002 C55.6776008,12.8920002 55.6512008,13.1780002 55.5984008,13.3980002 C55.5456008,13.6180002 55.4488008,13.7896002 55.3080008,13.9128002 C55.1672008,14.0360002 54.9648008,14.1196002 54.7008008,14.1636002 C54.4368008,14.2076002 54.0848008,14.2296002 53.6448008,14.2296002 L53.6448008,14.2296002 Z" id="Q" fill="#030E2F"></path>
                </g>
                <g id="La-PetiteQuestion" transform="translate(78.980000, 2.860000)">
                    <path d="M8.12,14.14 L8.12,12.54 L1.74,12.54 L1.74,0.14 L-7.10542736e-15,0.14 L-7.10542736e-15,14.14 L8.12,14.14 Z M13.12,14.26 C14.6133333,14.26 15.7533333,13.6933333 16.54,12.56 C16.5533333,13.08 16.7,13.4733333 16.98,13.74 C17.26,14.0066667 17.7266667,14.14 18.38,14.14 L18.38,14.14 L19.28,14.14 L19.28,12.64 L18.78,12.64 C18.3266667,12.64 18.1,12.3933333 18.1,11.9 L18.1,11.9 L18.1,7.5 C18.1,6.31333333 17.7433333,5.40333333 17.03,4.77 C16.3166667,4.13666667 15.3066667,3.82 14,3.82 C12.7733333,3.82 11.7766667,4.1 11.01,4.66 C10.2433333,5.22 9.8,6 9.68,7 L9.68,7 L11.32,7 C11.4266667,6.48 11.71,6.06333333 12.17,5.75 C12.63,5.43666667 13.2133333,5.28 13.92,5.28 C14.72,5.28 15.3433333,5.46666667 15.79,5.84 C16.2366667,6.21333333 16.46,6.73333333 16.46,7.4 L16.46,7.4 L16.46,8.1 L13.46,8.1 C12.1266667,8.1 11.11,8.37333333 10.41,8.92 C9.71,9.46666667 9.36,10.2533333 9.36,11.28 C9.36,12.2 9.70333333,12.9266667 10.39,13.46 C11.0766667,13.9933333 11.9866667,14.26 13.12,14.26 Z M13.24,12.86 C12.56,12.86 12.02,12.7066667 11.62,12.4 C11.22,12.0933333 11.02,11.6866667 11.02,11.18 C11.02,10.0466667 11.78,9.48 13.3,9.48 L13.3,9.48 L16.46,9.48 L16.46,9.98 C16.46,10.8466667 16.1733333,11.5433333 15.6,12.07 C15.0266667,12.5966667 14.24,12.86 13.24,12.86 Z M27.76,14.14 L27.76,8.76 L31.4,8.76 C32.32,8.76 33.13,8.58333333 33.83,8.23 C34.53,7.87666667 35.0733333,7.37333333 35.46,6.72 C35.8466667,6.06666667 36.04,5.30666667 36.04,4.44 C36.04,3.57333333 35.85,2.81666667 35.47,2.17 C35.09,1.52333333 34.5466667,1.02333333 33.84,0.67 C33.1333333,0.316666667 32.32,0.14 31.4,0.14 L31.4,0.14 L26.02,0.14 L26.02,14.14 L27.76,14.14 Z M31.24,7.16 L27.76,7.16 L27.76,1.74 L31.26,1.74 C32.18,1.74 32.91,1.98333333 33.45,2.47 C33.99,2.95666667 34.26,3.61333333 34.26,4.44 C34.26,5.26666667 33.9866667,5.92666667 33.44,6.42 C32.8933333,6.91333333 32.16,7.16 31.24,7.16 L31.24,7.16 Z M42.36,14.26 C43.52,14.26 44.5,13.93 45.3,13.27 C46.1,12.61 46.6,11.76 46.8,10.72 L46.8,10.72 L45.14,10.72 C44.9666667,11.3733333 44.6233333,11.8833333 44.11,12.25 C43.5966667,12.6166667 42.9733333,12.8 42.24,12.8 C41.2933333,12.8 40.5266667,12.5 39.94,11.9 C39.3533333,11.3 39.0466667,10.5 39.02,9.5 L39.02,9.5 L39.02,9.36 L46.94,9.36 C46.9666667,9.04 46.98,8.80666667 46.98,8.66 C46.9533333,7.67333333 46.7333333,6.81333333 46.32,6.08 C45.9066667,5.34666667 45.34,4.78666667 44.62,4.4 C43.9,4.01333333 43.0733333,3.82 42.14,3.82 C41.1933333,3.82 40.3533333,4.03666667 39.62,4.47 C38.8866667,4.90333333 38.3166667,5.51333333 37.91,6.3 C37.5033333,7.08666667 37.3,8 37.3,9.04 C37.3,10.0666667 37.51,10.9766667 37.93,11.77 C38.35,12.5633333 38.94,13.1766667 39.7,13.61 C40.46,14.0433333 41.3466667,14.26 42.36,14.26 Z M45.28,8 L39.12,8 C39.2,7.18666667 39.5333333,6.52666667 40.12,6.02 C40.7066667,5.51333333 41.3866667,5.26 42.16,5.26 C43.0266667,5.26 43.7433333,5.5 44.31,5.98 C44.8766667,6.46 45.2,7.13333333 45.28,8 L45.28,8 Z M54.08,14.14 L54.08,12.64 L52.3,12.64 C51.8866667,12.64 51.5966667,12.55 51.43,12.37 C51.2633333,12.19 51.18,11.8866667 51.18,11.46 L51.18,11.46 L51.18,5.44 L53.76,5.44 L53.76,3.94 L51.18,3.94 L51.18,1.08 L49.54,1.08 L49.54,3.94 L47.7,3.94 L47.7,5.44 L49.54,5.44 L49.54,11.48 C49.54,12.4 49.7433333,13.0733333 50.15,13.5 C50.5566667,13.9266667 51.24,14.14 52.2,14.14 L52.2,14.14 L54.08,14.14 Z M56.06,2.12 C56.3666667,2.12 56.62,2.02 56.82,1.82 C57.02,1.62 57.12,1.36666667 57.12,1.06 C57.12,0.753333333 57.02,0.5 56.82,0.3 C56.62,0.1 56.3666667,-3.46389584e-13 56.06,-3.46389584e-13 C55.7533333,-3.46389584e-13 55.5,0.1 55.3,0.3 C55.1,0.5 55,0.753333333 55,1.06 C55,1.36666667 55.1,1.62 55.3,1.82 C55.5,2.02 55.7533333,2.12 56.06,2.12 Z M56.88,14.14 L56.88,3.94 L55.24,3.94 L55.24,14.14 L56.88,14.14 Z M64.34,14.14 L64.34,12.64 L62.56,12.64 C62.1466667,12.64 61.8566667,12.55 61.69,12.37 C61.5233333,12.19 61.44,11.8866667 61.44,11.46 L61.44,11.46 L61.44,5.44 L64.02,5.44 L64.02,3.94 L61.44,3.94 L61.44,1.08 L59.8,1.08 L59.8,3.94 L57.96,3.94 L57.96,5.44 L59.8,5.44 L59.8,11.48 C59.8,12.4 60.0033333,13.0733333 60.41,13.5 C60.8166667,13.9266667 61.5,14.14 62.46,14.14 L62.46,14.14 L64.34,14.14 Z M70.2,14.26 C71.36,14.26 72.34,13.93 73.14,13.27 C73.94,12.61 74.44,11.76 74.64,10.72 L74.64,10.72 L72.98,10.72 C72.8066667,11.3733333 72.4633333,11.8833333 71.95,12.25 C71.4366667,12.6166667 70.8133333,12.8 70.08,12.8 C69.1333333,12.8 68.3666667,12.5 67.78,11.9 C67.1933333,11.3 66.8866667,10.5 66.86,9.5 L66.86,9.5 L66.86,9.36 L74.78,9.36 C74.8066667,9.04 74.82,8.80666667 74.82,8.66 C74.7933333,7.67333333 74.5733333,6.81333333 74.16,6.08 C73.7466667,5.34666667 73.18,4.78666667 72.46,4.4 C71.74,4.01333333 70.9133333,3.82 69.98,3.82 C69.0333333,3.82 68.1933333,4.03666667 67.46,4.47 C66.7266667,4.90333333 66.1566667,5.51333333 65.75,6.3 C65.3433333,7.08666667 65.14,8 65.14,9.04 C65.14,10.0666667 65.35,10.9766667 65.77,11.77 C66.19,12.5633333 66.78,13.1766667 67.54,13.61 C68.3,14.0433333 69.1866667,14.26 70.2,14.26 Z M73.12,8 L66.96,8 C67.04,7.18666667 67.3733333,6.52666667 67.96,6.02 C68.5466667,5.51333333 69.2266667,5.26 70,5.26 C70.8666667,5.26 71.5833333,5.5 72.15,5.98 C72.7166667,6.46 73.04,7.13333333 73.12,8 L73.12,8 Z" id="LaPetite" fill="#63C37B"></path>
                    <path d="M83.1,14.26 C84.6466667,14.26 85.98,13.8333333 87.1,12.98 L87.1,12.98 L87.24,13.18 C87.4933333,13.5266667 87.78,13.7733333 88.1,13.92 C88.42,14.0666667 88.84,14.14 89.36,14.14 L89.36,14.14 L90.64,14.14 L90.64,12.54 L89.56,12.54 C89.2666667,12.54 89.02,12.49 88.82,12.39 C88.62,12.29 88.4266667,12.1133333 88.24,11.86 C88.7333333,11.2333333 89.1133333,10.52 89.38,9.72 C89.6466667,8.92 89.78,8.06 89.78,7.14 C89.78,5.78 89.4966667,4.56 88.93,3.48 C88.3633333,2.4 87.5733333,1.55333333 86.56,0.94 C85.5466667,0.326666667 84.3933333,0.02 83.1,0.02 C81.8066667,0.02 80.6533333,0.326666667 79.64,0.94 C78.6266667,1.55333333 77.8366667,2.4 77.27,3.48 C76.7033333,4.56 76.42,5.78 76.42,7.14 C76.42,8.5 76.7033333,9.72 77.27,10.8 C77.8366667,11.88 78.6266667,12.7266667 79.64,13.34 C80.6533333,13.9533333 81.8066667,14.26 83.1,14.26 Z M83.1,12.66 C82.14,12.66 81.29,12.4233333 80.55,11.95 C79.81,11.4766667 79.2333333,10.8233333 78.82,9.99 C78.4066667,9.15666667 78.2,8.20666667 78.2,7.14 C78.2,6.07333333 78.4066667,5.12333333 78.82,4.29 C79.2333333,3.45666667 79.81,2.80333333 80.55,2.33 C81.29,1.85666667 82.14,1.62 83.1,1.62 C84.06,1.62 84.91,1.85666667 85.65,2.33 C86.39,2.80333333 86.9666667,3.45666667 87.38,4.29 C87.7933333,5.12333333 88,6.07333333 88,7.14 C88,8.39333333 87.72,9.47333333 87.16,10.38 L87.16,10.38 L86.72,9.78 C86.4666667,9.43333333 86.1933333,9.18333333 85.9,9.03 C85.6066667,8.87666667 85.2333333,8.8 84.78,8.8 L84.78,8.8 L83.32,8.8 L83.32,10.4 L84.5,10.4 C84.7533333,10.4 84.9733333,10.4533333 85.16,10.56 C85.3466667,10.6666667 85.5333333,10.8466667 85.72,11.1 L85.72,11.1 L86.1,11.62 C85.26,12.3133333 84.26,12.66 83.1,12.66 Z M95.7,14.26 C97.1,14.26 98.1866667,13.7666667 98.96,12.78 L98.96,12.78 L99.18,14.14 L100.6,14.14 L100.6,3.94 L98.96,3.94 L98.96,9.04 C98.96,10.1866667 98.6966667,11.0933333 98.17,11.76 C97.6433333,12.4266667 96.9133333,12.76 95.98,12.76 C95.1266667,12.76 94.47,12.4833333 94.01,11.93 C93.55,11.3766667 93.32,10.5733333 93.32,9.52 L93.32,9.52 L93.32,3.94 L91.68,3.94 L91.68,9.62 C91.68,11.22 92.0466667,12.3933333 92.78,13.14 C93.5133333,13.8866667 94.4866667,14.26 95.7,14.26 Z M107.54,14.26 C108.7,14.26 109.68,13.93 110.48,13.27 C111.28,12.61 111.78,11.76 111.98,10.72 L111.98,10.72 L110.32,10.72 C110.146667,11.3733333 109.803333,11.8833333 109.29,12.25 C108.776667,12.6166667 108.153333,12.8 107.42,12.8 C106.473333,12.8 105.706667,12.5 105.12,11.9 C104.533333,11.3 104.226667,10.5 104.2,9.5 L104.2,9.5 L104.2,9.36 L112.12,9.36 C112.146667,9.04 112.16,8.80666667 112.16,8.66 C112.133333,7.67333333 111.913333,6.81333333 111.5,6.08 C111.086667,5.34666667 110.52,4.78666667 109.8,4.4 C109.08,4.01333333 108.253333,3.82 107.32,3.82 C106.373333,3.82 105.533333,4.03666667 104.8,4.47 C104.066667,4.90333333 103.496667,5.51333333 103.09,6.3 C102.683333,7.08666667 102.48,8 102.48,9.04 C102.48,10.0666667 102.69,10.9766667 103.11,11.77 C103.53,12.5633333 104.12,13.1766667 104.88,13.61 C105.64,14.0433333 106.526667,14.26 107.54,14.26 Z M110.46,8 L104.3,8 C104.38,7.18666667 104.713333,6.52666667 105.3,6.02 C105.886667,5.51333333 106.566667,5.26 107.34,5.26 C108.206667,5.26 108.923333,5.5 109.49,5.98 C110.056667,6.46 110.38,7.13333333 110.46,8 L110.46,8 Z M118.12,14.26 C118.866667,14.26 119.546667,14.1333333 120.16,13.88 C120.773333,13.6266667 121.26,13.2666667 121.62,12.8 C121.98,12.3333333 122.16,11.7933333 122.16,11.18 C122.16,10.4733333 121.983333,9.91333333 121.63,9.5 C121.276667,9.08666667 120.81,8.78666667 120.23,8.6 C119.65,8.41333333 118.913333,8.26666667 118.02,8.16 C117.38,8.08 116.903333,8.00666667 116.59,7.94 C116.276667,7.87333333 116.02,7.74666667 115.82,7.56 C115.62,7.37333333 115.52,7.10666667 115.52,6.76 C115.52,6.29333333 115.733333,5.91666667 116.16,5.63 C116.586667,5.34333333 117.146667,5.2 117.84,5.2 C118.52,5.2 119.086667,5.37333333 119.54,5.72 C119.993333,6.06666667 120.253333,6.50666667 120.32,7.04 L120.32,7.04 L121.96,7.04 C121.88,6 121.463333,5.2 120.71,4.64 C119.956667,4.08 118.98,3.8 117.78,3.8 C117.046667,3.8 116.386667,3.93 115.8,4.19 C115.213333,4.45 114.75,4.81333333 114.41,5.28 C114.07,5.74666667 113.9,6.28 113.9,6.88 C113.9,7.54666667 114.073333,8.07 114.42,8.45 C114.766667,8.83 115.22,9.10666667 115.78,9.28 C116.34,9.45333333 117.06,9.59333333 117.94,9.7 C118.566667,9.78 119.05,9.86 119.39,9.94 C119.73,10.02 120.006667,10.1666667 120.22,10.38 C120.433333,10.5933333 120.54,10.9 120.54,11.3 C120.54,11.7666667 120.316667,12.1433333 119.87,12.43 C119.423333,12.7166667 118.84,12.86 118.12,12.86 C117.306667,12.86 116.643333,12.6666667 116.13,12.28 C115.616667,11.8933333 115.346667,11.3933333 115.32,10.78 L115.32,10.78 L113.68,10.78 C113.693333,11.8733333 114.103333,12.7266667 114.91,13.34 C115.716667,13.9533333 116.786667,14.26 118.12,14.26 Z M129.24,14.14 L129.24,12.64 L127.46,12.64 C127.046667,12.64 126.756667,12.55 126.59,12.37 C126.423333,12.19 126.34,11.8866667 126.34,11.46 L126.34,11.46 L126.34,5.44 L128.92,5.44 L128.92,3.94 L126.34,3.94 L126.34,1.08 L124.7,1.08 L124.7,3.94 L122.86,3.94 L122.86,5.44 L124.7,5.44 L124.7,11.48 C124.7,12.4 124.903333,13.0733333 125.31,13.5 C125.716667,13.9266667 126.4,14.14 127.36,14.14 L127.36,14.14 L129.24,14.14 Z M131.22,2.12 C131.526667,2.12 131.78,2.02 131.98,1.82 C132.18,1.62 132.28,1.36666667 132.28,1.06 C132.28,0.753333333 132.18,0.5 131.98,0.3 C131.78,0.1 131.526667,-3.46389584e-13 131.22,-3.46389584e-13 C130.913333,-3.46389584e-13 130.66,0.1 130.46,0.3 C130.26,0.5 130.16,0.753333333 130.16,1.06 C130.16,1.36666667 130.26,1.62 130.46,1.82 C130.66,2.02 130.913333,2.12 131.22,2.12 Z M132.04,14.14 L132.04,3.94 L130.4,3.94 L130.4,14.14 L132.04,14.14 Z M138.98,14.26 C139.966667,14.26 140.843333,14.04 141.61,13.6 C142.376667,13.16 142.973333,12.5466667 143.4,11.76 C143.826667,10.9733333 144.04,10.0666667 144.04,9.04 C144.04,8.01333333 143.826667,7.10666667 143.4,6.32 C142.973333,5.53333333 142.376667,4.92 141.61,4.48 C140.843333,4.04 139.966667,3.82 138.98,3.82 C137.993333,3.82 137.116667,4.04 136.35,4.48 C135.583333,4.92 134.986667,5.53333333 134.56,6.32 C134.133333,7.10666667 133.92,8.01333333 133.92,9.04 C133.92,10.0666667 134.133333,10.9733333 134.56,11.76 C134.986667,12.5466667 135.583333,13.16 136.35,13.6 C137.116667,14.04 137.993333,14.26 138.98,14.26 Z M138.98,12.8 C138.313333,12.8 137.723333,12.64 137.21,12.32 C136.696667,12 136.3,11.5533333 136.02,10.98 C135.74,10.4066667 135.6,9.76 135.6,9.04 C135.6,8.32 135.74,7.67333333 136.02,7.1 C136.3,6.52666667 136.696667,6.08 137.21,5.76 C137.723333,5.44 138.313333,5.28 138.98,5.28 C139.646667,5.28 140.236667,5.44 140.75,5.76 C141.263333,6.08 141.66,6.52666667 141.94,7.1 C142.22,7.67333333 142.36,8.32 142.36,9.04 C142.36,9.76 142.22,10.4066667 141.94,10.98 C141.66,11.5533333 141.263333,12 140.75,12.32 C140.236667,12.64 139.646667,12.8 138.98,12.8 Z M147.56,14.14 L147.56,9.04 C147.56,7.89333333 147.833333,6.98666667 148.38,6.32 C148.926667,5.65333333 149.68,5.32 150.64,5.32 C151.533333,5.32 152.216667,5.59666667 152.69,6.15 C153.163333,6.70333333 153.4,7.50666667 153.4,8.56 L153.4,8.56 L153.4,14.14 L155.04,14.14 L155.04,8.46 C155.04,6.86 154.663333,5.68666667 153.91,4.94 C153.156667,4.19333333 152.16,3.82 150.92,3.82 C149.453333,3.82 148.333333,4.32 147.56,5.32 L147.56,5.32 L147.34,3.94 L145.92,3.94 L145.92,14.14 L147.56,14.14 Z" id="Question" fill="#030E2F"></path>
                </g>
            </g>
        </g>
    </g>
</svg>