<?xml version="1.0" encoding="UTF-8"?><svg width="24" height="24" viewBox="0 0 100 100" version="1.1" xmlns="http://www.w3.org/2000/svg" xmlns:xlink="http://www.w3.org/1999/xlink"><title>ILLUSTRATIONS/resume</title><g id="ILLUSTRATIONS/resume" stroke="none" stroke-width="1" fill="none" fill-rule="evenodd"><path d="M52.7847264,-4.11260004e-09 C58.4709245,-4.11260004e-09 60.5422527,4.87482284 60.5422527,6.75347039 C65.2170112,6.38737179 67.9995829,9.25892784 67.9995829,12.7058823 L68,12.7058823 L67.9998967,13.051 L84,13.0529716 C84.5847721,13.0529716 85.0588235,13.5270231 85.0588235,14.1117951 L85.0588235,98.9411765 C85.0588235,99.5259486 84.5847721,100 84,100 L22.0577202,100 C21.4729481,100 20.9988967,99.5259486 20.9988967,98.9411765 L20.9988967,14.1117951 C20.9988967,13.5270231 21.4729481,13.0529716 22.0577202,13.0529716 L37.9998967,13.05 L38,12.7058823 L38.001709,12.7058823 C38.7185975,8.73760771 40.9996483,6.75347039 44.8448616,6.75347039 C44.8448616,4.36822775 47.0985282,-4.11260004e-09 52.7847264,-4.11260004e-09 Z M67.9998967,15.017 L68,21 L38,21 L37.9998967,15.018 L23.5675698,15.0191316 C23.3076711,15.0191316 23.0915139,15.2064112 23.0466876,15.4533809 L23.038158,15.5485434 L23.038158,97.4779248 C23.038158,97.7378235 23.2254376,97.9539807 23.4724074,97.998807 L23.5675698,98.0073366 L82.4959589,98.0073366 C82.7558576,98.0073366 82.9720148,97.820057 83.0168411,97.5730872 L83.0253707,97.4779248 L83.0253707,15.5485434 C83.0253707,15.2561573 82.788345,15.0191316 82.4959589,15.0191316 L67.9998967,15.017 Z M72,84 C72.5522847,84 73,84.4477153 73,85 C73,85.5522847 72.5522847,86 72,86 L32,86 C31.4477153,86 31,85.5522847 31,85 C31,84.4477153 31.4477153,84 32,84 L72,84 Z M72,78 C72.5522847,78 73,78.4477152 73,79 C73,79.5522847 72.5522847,80 72,80 L32,80 C31.4477153,80 31,79.5522847 31,79 C31,78.4477152 31.4477153,78 32,78 L72,78 Z M72,72 C72.5522847,72 73,72.4477152 73,73 C73,73.5522847 72.5522847,74 72,74 L32,74 C31.4477153,74 31,73.5522847 31,73 C31,72.4477152 31.4477153,72 32,72 L72,72 Z M72,66 C72.5522847,66 73,66.4477152 73,67 C73,67.5522847 72.5522847,68 72,68 L32,68 C31.4477153,68 31,67.5522847 31,67 C31,66.4477152 31.4477153,66 32,66 L72,66 Z M63,60 C63.5522847,60 64,60.4477152 64,61 C64,61.5522847 63.5522847,62 63,62 L41,62 C40.4477153,62 40,61.5522847 40,61 C40,60.4477152 40.4477153,60 41,60 L63,60 Z M52.7647059,1.92898268 C46.8456029,1.92898268 46.2847787,7.25368587 46.2847787,9.53406689 C42.7464889,8.54797547 40.6666343,9.53025099 40.0452149,12.4808935 L40.001343,12.7058823 L40,12.7058823 L40,19 L66,19 L66,12.7058823 L66.0074084,12.7058823 C65.5748992,9.59687657 63.6119205,8.10589295 59.1685783,9.53406689 C59.1685783,7.73800969 58.4037571,1.92898268 52.7647059,1.92898268 Z M53,5 C55.209139,5 57,6.790861 57,9 C57,11.209139 55.209139,13 53,13 C50.790861,13 49,11.209139 49,9 C49,6.790861 50.790861,5 53,5 Z M53,7 C51.8954305,7 51,7.8954305 51,9 C51,10.1045695 51.8954305,11 53,11 C54.1045695,11 55,10.1045695 55,9 C55,7.8954305 54.1045695,7 53,7 Z" id="Combined-Shape" fill="#030E2F"/><path d="M59.3903986,50.0598415 L46.6863662,50.0598415 C46.3310432,50.0598415 46.0434966,49.7723329 46.0434966,49.4169705 L46.0434966,38.6431449 L44.6428696,38.6431449 C44.2875466,38.6431449 44,38.3556364 44,38.0003126 L44,32.642871 C44,32.2875472 44.2875466,32 44.6428696,32 L50.4285797,32 C50.7839027,32 51.0714493,32.2875472 51.0714493,32.642871 C51.0714493,33.7063276 51.9365263,34.5714452 53.0000193,34.5714452 C54.0635124,34.5714452 54.9285507,33.7063276 54.9285507,32.642871 C54.9285507,32.2875472 55.2160586,32 55.5714203,32 L61.3571304,32 C61.7124534,32 62,32.2875472 62,32.642871 L62,38.0003126 C62,38.3556364 61.7124921,38.6431836 61.3571304,38.6431836 L60.0332681,38.6431836 L60.0332681,49.4170092 C60.0332295,49.7722943 59.7457215,50.0598415 59.3903986,50.0598415 Z M48.0577346,48.0415123 L58.0183483,48.0415123 L58.0183483,37.5915447 C58.0183483,37.2691217 58.2792353,37.0081996 58.6016933,37.0081996 L59.9999821,37.0081996 L59.9999821,34.0370806 L56.4503195,34.0370806 C56.1791473,35.3666846 54.6978373,36.6078665 52.9999821,36.6078665 C51.3021269,36.6078665 49.8269213,35.3666846 49.555749,34.0370806 L45.9999821,34.0370806 L45.9999821,37.0081996 L47.4743895,37.0081996 C47.7968125,37.0081996 48.0577346,37.2690866 48.0577346,37.5915447 L48.0577346,48.0415123 Z" id="Shape-Copy-3" fill="#63C37B" fill-rule="nonzero"/></g></svg>